<svg width="121" height="67" viewBox="0 0 121 67" fill="none" xmlns="http://www.w3.org/2000/svg">
<path fill-rule="evenodd" clip-rule="evenodd" d="M60.1793 0C93.4054 0 120.373 15.0238 120.373 33.5299C120.373 52.0388 93.4054 67.057 60.1793 67.057C26.9673 67.057 0 52.0388 0 33.5299C0 15.0238 26.9673 0 60.1793 0ZM60.1793 3.02438C28.6475 3.02438 3.03837 16.7181 3.03837 33.5299C3.03837 50.3488 28.6475 64.0102 60.1793 64.0102C91.7112 64.0102 117.32 50.3488 117.32 33.5299C117.32 16.7181 91.7112 3.02438 60.1793 3.02438ZM49.6081 36.7489H37.7626C37.9026 39.664 39.5408 41.0152 41.9911 41.0152C43.8113 41.0152 45.0575 39.9903 45.3795 38.9584H49.258C48.2639 42.4854 45.3795 44.118 41.8231 44.118C36.7825 44.118 33.6461 40.6498 33.6461 35.696C33.6461 30.8976 36.9645 27.2431 41.8231 27.2431C47.2838 27.2431 49.9161 31.8259 49.6081 36.7489ZM41.7111 30.2647C39.2468 30.2647 37.9866 31.9043 37.7906 34.0018H45.4776C45.1835 31.7629 44.2454 30.2647 41.7111 30.2647ZM100.896 36.7489H89.0509C89.1769 39.664 90.8291 41.0152 93.2654 41.0152C95.0996 41.0152 96.3457 39.9903 96.6678 38.9584H100.546C99.5521 42.4854 96.6678 44.118 93.1114 44.118C88.0567 44.118 84.9344 40.6498 84.9344 35.696C84.9344 30.8976 88.2528 27.2431 93.1114 27.2431C98.572 27.2431 101.204 31.8259 100.896 36.7489ZM92.9853 30.2647C90.535 30.2647 89.2749 31.9043 89.0649 34.0018H96.7658C96.4718 31.7629 95.5336 30.2647 92.9853 30.2647ZM12.9236 43.6839H17.3201V34.1474H26.8133V43.6839H31.2098V21.5346H26.8133V30.6035H17.3201V21.5346H12.9236V43.6839ZM52.0304 43.6839H56.1749V35.0253C56.1749 31.7741 57.323 30.4425 59.7033 30.4425C61.7475 30.4425 62.6717 31.7433 62.6717 34.3742V43.6839H66.8021V33.8379C66.8021 29.8754 65.626 27.2431 60.9354 27.2431C59.0872 27.2431 57.155 28.1112 56.0488 29.9062H55.9508V27.6772H52.0304V43.6839ZM70.3306 43.6839H74.4611V35.0155L80.5658 43.6839H85.7045L78.9836 34.7018L84.9344 27.6772H80.0058L74.4611 34.5786V21.5346H70.3306V43.6839ZM103.319 43.6839H107.449V21.5346H103.319V43.6839Z" fill="white"/>
</svg>